<?xml version="1.0" encoding="iso-8859-1"?>
<!-- Generator: Adobe Illustrator 29.1.0, SVG Export Plug-In . SVG Version: 9.03 Build 55587)  -->
<svg version="1.1" id="Layer_1" xmlns="http://www.w3.org/2000/svg" xmlns:xlink="http://www.w3.org/1999/xlink" x="0px" y="0px"
	 viewBox="0 0 3872.983 3872.983" style="enable-background:new 0 0 3872.983 3872.983;" xml:space="preserve">
<linearGradient id="SVGID_1_" gradientUnits="userSpaceOnUse" x1="888.6765" y1="2676.2544" x2="2984.3069" y2="580.624">
	<stop  offset="0" style="stop-color:#DB3939"/>
	<stop  offset="0.9994" style="stop-color:#F2F6FC"/>
</linearGradient>
<path style="fill:url(#SVGID_1_);" d="M3084.591,2238.287c-10.093-20.931-31.275-34.235-54.511-34.235h-416.966V234.497
	c0-33.421-27.094-60.515-60.515-60.515H1320.385c-33.421,0-60.515,27.094-60.515,60.515v1969.555H842.902
	c-23.236,0-44.42,13.306-54.511,34.235c-10.091,20.929-7.305,45.789,7.164,63.969l1093.59,1373.918
	c11.481,14.425,28.911,22.828,47.348,22.828s35.867-8.402,47.348-22.827l1093.588-1373.918
	C3091.896,2284.077,3094.68,2259.216,3084.591,2238.287z M1936.492,3541.314l-968.078-1216.23h351.971
	c33.422,0,60.515-27.094,60.515-60.515V295.012h1111.183v1969.555c0,33.421,27.094,60.515,60.515,60.515h351.969L1936.492,3541.314z
	"/>
</svg>
